<svg xmlns="http://www.w3.org/2000/svg" viewBox="274.6 140.0 480 480" width="480" height="480">
<path d="M513.524 187.789C514.253 188.14 525.491 201.898 528.93 204.507C545.804 217.31 562.624 225.851 578.039 240.819C619.511 228.108 640.371 261.457 676.62 269.719C669.705 293.115 677.6 317.663 673.572 341.749C670.659 359.171 664.066 372.246 649.705 382.847C693.42 419.117 668.36 455.392 677.325 500.561C660.635 504.313 649.857 509.285 635.106 517.773C615.38 529.124 596.013 531.92 573.745 527.124C565.861 533.374 560.546 538.711 551.555 544.199C543.464 549.24 534.847 553.23 527.117 558.85C521.811 562.708 518.22 568.68 513.376 572.685C500.734 555.384 484.478 550.497 467.582 538.914C462.978 535.758 457.817 530.545 453.774 526.544C433.421 532.991 414.868 529.128 395.976 519.819C386.57 515.081 377.46 509.7 367.703 505.681C361.651 503.188 355.031 501.916 348.664 500.393C349.681 495.444 350.879 489.533 351.035 484.487C351.686 463.55 347.921 442.546 351.744 421.659C354.587 406.127 363.362 391.854 376.478 382.837C336.749 354.755 358.062 305.719 348.881 269.917C355.596 267.782 362.436 266.105 368.688 262.716C393.017 249.527 419.766 229.794 448.956 241.246C471.511 219.846 494.853 212.274 513.524 187.789ZM453.519 301.83C478.986 292.075 499.154 316.585 513.601 333.953C522.101 320.814 538.495 303.268 554.306 300.375C562.205 298.93 565.995 299.613 573.737 301.154C578.056 292.238 579.175 281.692 575.762 272.291C567.942 250.751 543.465 238.375 526.04 225.507C522.02 222.538 516.837 218.666 513.673 215.028C496.723 233.83 465.983 242.236 453.89 266.931C448.232 278.485 447.995 290.268 453.519 301.83ZM369.966 282.564C370.172 291.792 370 301.733 369.55 310.956C368.459 333.349 369.247 354.002 388.393 368.79C390.508 370.14 393.085 371.888 395.248 373.058L406.221 370.05C403.377 351.973 406.498 336.764 403.899 318.182C416.88 313.966 423.466 309.961 435.079 305.534C428.844 287.938 429.721 273.772 437.398 256.923C433.937 256.391 431.344 256.552 427.853 256.637C410.107 259.696 401.784 265.618 386.473 274.395C381.782 277.085 374.923 280.246 369.966 282.564ZM414.193 387.454C398.54 391.444 385.381 394.508 376.43 409.724C363.018 432.789 371.048 460.861 369.886 486.114C369.842 487.054 373.629 488.224 374.523 488.566C397.691 497.443 412.616 511.547 438.992 511.169C457.375 507.744 463.23 500.71 475.937 487.069C469.65 481.334 464.643 476.631 461.655 468.4C454.702 449.248 462.56 430.291 467.154 411.887C449.185 406.345 428.665 402.205 415.308 388.13C414.752 387.544 414.882 387.672 414.193 387.454ZM514.26 546.27C519.974 540.504 529.788 535.142 536.979 530.934C543.422 527.181 550.59 521.739 556.389 518.601C548.235 512.87 540.383 504.296 534.795 496.065C526.063 501.921 520.613 504.561 513.705 512.601C505.434 502.929 502.096 502.065 491.112 495.824C485.322 505.284 478.177 511.724 469.284 518.318C474.591 521.918 479.043 524.912 484.555 528.156C493.398 533.36 507.09 539.379 514.26 546.27ZM656.672 486.774C657.077 478.738 656.759 470.334 657.229 462.514C658.548 440.586 660.128 421.319 644.328 403.558C636.252 394.48 624.012 388.847 611.921 387.412C595.878 403.157 580.063 404.921 559.943 411.332C568.379 438.909 577.573 466.993 549.82 486.403C558.958 498.132 569.494 508.723 584.841 510.672C586.033 510.821 587.226 510.957 588.421 511.079C619.887 511.039 632.51 492.303 656.672 486.774ZM563.87 318.219C551.993 318.903 546.822 323.779 539.175 332.375C534.268 337.89 529.791 342.965 524.474 348.103C527.765 349.345 530.375 350.422 533.424 352.18C547.786 360.462 555.931 381.063 548.456 396.392C552.037 394.998 555.646 393.677 559.28 392.431C571.265 388.88 592.887 383.027 598.8 371.846C605.571 359.042 601.789 344.97 602.306 331.676C594.447 326.894 572.857 317.506 563.87 318.219ZM539.952 411.026C521.663 425.453 506.058 424.502 487.319 411.274C483.356 423.461 478.594 436.392 477.221 449.104C475.903 461.307 483.435 468.534 492.525 474.565C500.161 479.264 506.494 482.971 513.386 488.73C517.293 485.791 521.675 482.494 525.644 480.12C538.837 472.229 554.135 462.828 549.504 444.644C547.911 438.387 543.109 415.892 539.952 411.026ZM516.74 402.135C526.98 400.373 533.866 390.659 532.137 380.413C530.408 370.167 520.717 363.25 510.465 364.946C500.167 366.649 493.211 376.395 494.948 386.688C496.684 396.981 506.453 403.905 516.74 402.135ZM594.028 256.662C592.672 256.834 590.832 256.787 590.037 257.518C596.524 274.056 599.38 287.84 591.857 305.039C591.69 305.422 591.519 305.803 591.346 306.184C601.358 310.062 611.141 314.326 621.457 318.346C620.676 331.708 620.977 342.856 621.457 356.204C621.579 359.599 619.39 367.508 619.968 370.266C622.67 371.264 628.194 371.95 631.271 372.431C634.924 370.509 636.359 369.514 639.701 367.046C666.321 345.306 651.591 310.499 655.286 282.424C634.916 272.768 615.751 257.121 594.028 256.662ZM460.66 318.228C448.6 318.8 434.307 325.95 423.536 331.594C423.158 345.459 419.854 365.27 430.031 375.774C439.363 385.407 456.217 388.218 468.05 392.883C470.986 393.303 474.651 395.014 477.834 395.862C471.529 374.609 480.155 355.451 501.566 348.449C498.3 344.42 494.798 340.988 491.362 337.213C483.713 328.809 475.908 319.454 463.742 318.341C462.642 318.24 461.765 318.077 460.66 318.228Z" fill="#ffffff"/>
</svg>